# xmcd
#
# Track frame offsets: 
#        150
#        18554
#        36677
#        55776
#        72920
#        92582
#        113405
#        132907
#        152046
#        167129
#        186855
#        206531
#        223286
#        245844
#        266196
#        284635
#        308978
#        328299
#
# Disc length: 4638 seconds
#
# Revision: 0
# Processed by: cddbd v1.5.2PL0 Copyright (c) Steve Scherf et al.
# Submitted via: ExactAudioCopyFreeDBPlugin 1.0
#
DISCID=20121c12
DTITLE=Cam Ly_Van Quang Long - The best of
DYEAR=1900
DGENRE=
TTITLE0=Anh co quen em
TTITLE1=Doi bo tinh yeu
TTITLE2=Giot nuoc mat muon mang
TTITLE3=Nac thang danh vong
TTITLE4=Thoi ta chia tay
TTITLE5=Danh thoi quen lang
TTITLE6=Tham mong
TTITLE7=Canh hoa tan phai
TTITLE8=Em chua biet yeu
TTITLE9=Gia tu con me
TTITLE10=Oi ngay xua yeu dau
TTITLE11=Chi tu
TTITLE12=Tinh da muon mang
TTITLE13=Chi mot minh anh thoi
TTITLE14=Anh co quen em
TTITLE15=TInh ban
TTITLE16=Dem cuoi cho nhau
TTITLE17=Tham mong
EXTD=
EXTT0=
EXTT1=
EXTT2=
EXTT3=
EXTT4=
EXTT5=
EXTT6=
EXTT7=
EXTT8=
EXTT9=
EXTT10=
EXTT11=
EXTT12=
EXTT13=
EXTT14=
EXTT15=
EXTT16=
EXTT17=
PLAYORDER=
